<?xml version="1.0" encoding="UTF-8" standalone="no"?>
<!-- Created with Inkscape (http://www.inkscape.org/) -->

<svg
   xmlns:dc="http://purl.org/dc/elements/1.1/"
   xmlns:cc="http://creativecommons.org/ns#"
   xmlns:rdf="http://www.w3.org/1999/02/22-rdf-syntax-ns#"
   xmlns:svg="http://www.w3.org/2000/svg"
   xmlns="http://www.w3.org/2000/svg"
   xmlns:sodipodi="http://sodipodi.sourceforge.net/DTD/sodipodi-0.dtd"
   xmlns:inkscape="http://www.inkscape.org/namespaces/inkscape"
   width="581.98059"
   height="744.95776"
   id="svg4847"
   version="1.1"
   inkscape:version="0.48.4 r9939"
   sodipodi:docname="edit-icon.svg">
  <defs
     id="defs4849" />
  <sodipodi:namedview
     id="base"
     pagecolor="#ffffff"
     bordercolor="#666666"
     borderopacity="1.0"
     inkscape:pageopacity="0.0"
     inkscape:pageshadow="2"
     inkscape:zoom="0.17110443"
     inkscape:cx="1337.0235"
     inkscape:cy="-553.48697"
     inkscape:document-units="px"
     inkscape:current-layer="layer1"
     showgrid="false"
     inkscape:window-width="1589"
     inkscape:window-height="844"
     inkscape:window-x="0"
     inkscape:window-y="24"
     inkscape:window-maximized="0"
     fit-margin-top="0"
     fit-margin-left="0"
     fit-margin-right="0"
     fit-margin-bottom="0" />
  <metadata
     id="metadata4852">
    <rdf:RDF>
      <cc:Work
         rdf:about="">
        <dc:format>image/svg+xml</dc:format>
        <dc:type
           rdf:resource="http://purl.org/dc/dcmitype/StillImage" />
        <dc:title></dc:title>
      </cc:Work>
    </rdf:RDF>
  </metadata>
  <g
     inkscape:label="Layer 1"
     inkscape:groupmode="layer"
     id="layer1"
     transform="translate(-105.03437,-121.31194)">
    <g
       id="g4885">
      <g
         transform="matrix(11.995974,0,0,11.995974,-1026.7108,-3323.3242)"
         id="g4830"
         style="fill:#000000;display:inline">
        <path
           sodipodi:nodetypes="sccccscccccccccccccccccccc"
           style="color:#000000;fill:#000000;display:inline"
           d="m 139.16125,289.01574 c -1.21475,-0.82153 -2.40927,-1.38304 -3.60564,-1.86639 l -1.28436,1.76747 7.30281,5.30669 1.28435,-1.76748 c -1.2539,-1.54184 -2.48242,-2.61875 -3.69716,-3.44029 z m -5.71637,1.03829 -1.28436,1.76747 7.30281,5.30669 1.28436,-1.76747 z m -2.22024,3.05539 -17.33384,23.854 3.9697,1.28965 16.73517,-22.70201 z m 4.08357,3.01311 -16.64311,22.65598 2.25231,3.53762 17.61003,-23.90002 z m -21.86219,21.86321 -1.8834,9.52618 8.32388,-4.59097 -2.36325,-3.52493 z"
           id="path11535"
           inkscape:connector-curvature="0" />
        <path
           sodipodi:nodetypes="ssssssccssssssccs"
           inkscape:connector-curvature="0"
           style="fill:#000000;fill-opacity:1;stroke:none"
           d="m 101.625,290.1875 c -4.027351,0 -7.28125,3.2539 -7.28125,7.28125 l 0,44.53125 c 0,4.02735 3.253899,7.25 7.28125,7.25 l 29.75,0 c 4.02735,0 7.28125,-3.22265 7.28125,-7.25 l 0,-34.84375 -4.4375,6 0,27.15625 c 0,2.48131 -1.98744,4.5 -4.46875,4.5 l -26.5,0 c -2.48131,0 -4.46875,-2.01869 -4.46875,-4.5 l 0,-41.1875 c 0,-2.48131 1.98744,-4.46875 4.46875,-4.46875 l 21.12683,0 2.84192,-4.46875 z"
           id="rect4819" />
      </g>
    </g>
  </g>
</svg>
