<?xml version="1.0"?>
<svg xmlns:rdf="http://www.w3.org/1999/02/22-rdf-syntax-ns#" xmlns="http://www.w3.org/2000/svg" xmlns:cc="http://creativecommons.org/ns#" xmlns:xlink="http://www.w3.org/1999/xlink" xmlns:dc="http://purl.org/dc/elements/1.1/" xmlns:svg="http://www.w3.org/2000/svg" id="svg5961" viewBox="0 0 527.97 500" version="1.0">
  <defs id="defs5963">
    <filter id="filter5867">
      <feGaussianBlur id="feGaussianBlur5869" stdDeviation="2.1962519"/>
    </filter>
    <filter id="filter5785">
      <feGaussianBlur id="feGaussianBlur5787" stdDeviation="2.1962519"/>
    </filter>
    <linearGradient id="linearGradient4454">
      <stop id="stop4456" stop-color="#d5d4d0" offset="0"/>
      <stop id="stop4464" stop-color="#f1f1f1" offset=".24539"/>
      <stop id="stop4462" stop-color="#fff" offset=".49077"/>
      <stop id="stop4466" stop-color="#f0f0f0" offset=".74539"/>
      <stop id="stop4458" stop-color="#d4d4d4" offset="1"/>
    </linearGradient>
    <linearGradient id="linearGradient4240">
      <stop id="stop4242" stop-color="#eeeeed" offset="0"/>
      <stop id="stop4244" stop-color="#a6a6a6" offset="1"/>
    </linearGradient>
    <filter id="filter5761">
      <feGaussianBlur id="feGaussianBlur5763" stdDeviation="1.301514"/>
    </filter>
    <linearGradient id="linearGradient2681" x1="336.35" xlink:href="#linearGradient4240" gradientUnits="userSpaceOnUse" y1="336.5" gradientTransform="matrix(2.2009 1.4815 -1.4956 2.2042 446.98 -1111.4)" x2="321.65" y2="448.71"/>
    <linearGradient id="linearGradient2683" x1="346.53" xlink:href="#linearGradient4454" gradientUnits="userSpaceOnUse" y1="351.67" gradientTransform="matrix(2.4469 1.0313 -1.0458 2.4474 187.96 -1049.5)" x2="328.65" y2="448.08"/>
    <linearGradient id="linearGradient2685" x1="346.53" gradientUnits="userSpaceOnUse" y1="351.67" gradientTransform="matrix(2.2602 .95984 -.73922 1.7399 137.91 -762.31)" x2="332.69" y2="437.68">
      <stop id="stop5665" stop-color="#9fd29d" offset="0"/>
      <stop id="stop5667" stop-color="#75bc76" stop-opacity=".50588" offset=".24539"/>
      <stop id="stop5669" stop-color="#6ab573" stop-opacity=".34902" offset=".49077"/>
      <stop id="stop5671" stop-color="#73ad79" stop-opacity=".27843" offset=".74539"/>
      <stop id="stop5673" stop-color="#7f9c81" stop-opacity=".070588" offset="1"/>
    </linearGradient>
    <linearGradient id="linearGradient2687" x1="336.35" xlink:href="#linearGradient4240" gradientUnits="userSpaceOnUse" y1="336.5" gradientTransform="matrix(2.5231 -.82022 .81413 2.5362 -937.53 -397.22)" x2="321.65" y2="448.71"/>
    <linearGradient id="linearGradient2689" x1="346.53" xlink:href="#linearGradient4454" gradientUnits="userSpaceOnUse" y1="351.67" gradientTransform="matrix(2.3201 -1.2914 1.2829 2.3319 -1048.4 -155.11)" x2="328.65" y2="448.08"/>
    <linearGradient id="linearGradient2691" x1="346.53" gradientUnits="userSpaceOnUse" y1="351.67" gradientTransform="matrix(2.1488 -1.1884 .91465 1.6544 -853.11 61.309)" x2="332.69" y2="437.68">
      <stop id="stop5751" stop-color="#d29d9e" offset="0"/>
      <stop id="stop5753" stop-color="#bc7675" stop-opacity=".50588" offset=".24539"/>
      <stop id="stop5755" stop-color="#b56c6a" stop-opacity=".34902" offset=".49077"/>
      <stop id="stop5757" stop-color="#ad7377" stop-opacity=".27843" offset=".74539"/>
      <stop id="stop5759" stop-color="#9c7f80" stop-opacity=".070588" offset="1"/>
    </linearGradient>
    <linearGradient id="linearGradient2693" x1="336.35" xlink:href="#linearGradient4240" gradientUnits="userSpaceOnUse" y1="336.5" gradientTransform="matrix(2.6367 .29381 -.30478 2.6462 -477.58 -1122.8)" x2="321.65" y2="448.71"/>
    <linearGradient id="linearGradient2695" x1="346.53" xlink:href="#linearGradient4454" gradientUnits="userSpaceOnUse" y1="351.67" gradientTransform="matrix(2.6463 -.21916 .20657 2.6534 -678.51 -948.01)" x2="328.65" y2="448.08"/>
    <linearGradient id="linearGradient2697" x1="346.53" gradientUnits="userSpaceOnUse" y1="351.67" gradientTransform="matrix(2.4477 -.196 .15060 1.8844 -589.86 -670.28)" x2="332.69" y2="437.68">
      <stop id="stop5419" stop-color="#9db8d2" offset="0"/>
      <stop id="stop5421" stop-color="#7592bc" stop-opacity=".50588" offset=".24539"/>
      <stop id="stop5423" stop-color="#6a87b5" stop-opacity=".34902" offset=".49077"/>
      <stop id="stop5425" stop-color="#7389ad" stop-opacity=".27843" offset=".74539"/>
      <stop id="stop5427" stop-color="#7f8e9c" stop-opacity=".070588" offset="1"/>
    </linearGradient>
  </defs>
  <g id="layer1" transform="translate(-72.468 -73.441)">
    <g id="g2664" transform="matrix(1.1395 0 0 1.1395 -39.332 -55.286)">
      <g id="g2646" transform="translate(-200,60)">
        <path id="path5577" d="m751.43 287.61l132.66-1.05c0.61-0.01 1.1 0.48 1.1 1.1l14.47 129.06c0 0.62-0.49 1.13-1.1 1.14l-145.97 2.25c-0.61 0.01-1.1-0.48-1.11-1.1l-1.14-130.27c0-0.62 0.48-1.13 1.09-1.13z" transform="matrix(1.4134 .61535 -.61535 1.4134 -326.83 -728.08)" filter="url(#filter5867)" stroke="#000" stroke-miterlimit="0" stroke-width="4.9811" fill="none"/>
        <path id="path5579" d="m553.94 133.47l196.72 84.21c0.91 0.38 1.33 1.42 0.94 2.32l-60.17 197.75c-0.39 0.91-1.43 1.33-2.33 0.95l-217.18-91.04c-0.91-0.38-1.33-1.42-0.94-2.32l80.63-190.91c0.38-0.91 1.42-1.34 2.33-0.96z" stroke="url(#linearGradient2681)" stroke-miterlimit="0" stroke-width="2.1267" fill="#fff"/>
        <path id="path5581" fill="url(#linearGradient2683)" d="m559.7 144.44l180.35 77.23c0.83 0.34 1.21 1.31 0.85 2.16l-55.44 182c-0.36 0.85-1.32 1.26-2.15 0.91l-199.12-83.46c-0.83-0.35-1.21-1.32-0.85-2.17l74.2-175.76c0.36-0.85 1.33-1.26 2.16-0.91z"/>
        <path id="path5583" fill="url(#linearGradient2685)" d="m562.72 155.73l166.68 71.65c0.77 0.32 1.18 1.07 0.93 1.68l-39.85 129.06c-0.26 0.61-1.08 0.83-1.85 0.51l-179.12-75.69c-0.77-0.32-1.18-1.07-0.92-1.68l52.28-125.02c0.25-0.61 1.08-0.83 1.85-0.51z"/>
      </g>
      <g id="g2640" transform="translate(0,60)">
        <path id="path5675" d="m534.57 462.23l132.66-1.04c0.61-0.01 1.1 0.48 1.11 1.1l14.46 129.06c0 0.62-0.48 1.12-1.09 1.13l-145.98 2.26c-0.61 0.01-1.1-0.48-1.11-1.1l-1.14-130.27c0-0.62 0.48-1.13 1.09-1.14z" transform="matrix(1.3557 -.73388 .73388 1.3557 -946.73 52.509)" filter="url(#filter5785)" stroke="#000" stroke-miterlimit="0" stroke-width="4.9811" fill="none"/>
        <path id="path5677" d="m108.73 285.73l187.55-103.03c0.86-0.48 1.93-0.17 2.41 0.69l118.65 169.26c0.48 0.86 0.17 1.94-0.69 2.42l-205.54 114.92c-0.86 0.48-1.93 0.18-2.41-0.69l-100.66-181.15c-0.48-0.86-0.17-1.94 0.69-2.42z" stroke="url(#linearGradient2687)" stroke-miterlimit="0" stroke-width="2.1267" fill="#fff"/>
        <path id="path5679" fill="url(#linearGradient2689)" d="m120.92 287.95l171.96-94.44c0.79-0.44 1.78-0.14 2.23 0.67l109.17 155.82c0.44 0.81 0.17 1.81-0.62 2.25l-188.44 105.38c-0.78 0.44-1.78 0.14-2.22-0.67l-92.7-166.75c-0.44-0.81-0.17-1.82 0.62-2.26z"/>
        <path id="path5681" fill="url(#linearGradient2691)" d="m131.67 292.53l159.15-87.11c0.73-0.4 1.57-0.27 1.89 0.31l77.08 110.92c0.32 0.57-0.01 1.36-0.74 1.76l-169.99 94.42c-0.73 0.4-1.57 0.27-1.89-0.31l-66.24-118.22c-0.32-0.58 0.01-1.36 0.74-1.77z"/>
      </g>
      <g id="g2634" transform="translate(0,220)">
        <path id="path4511" d="m314.11 305.63l78.62-8.79c0.36-0.04 0.68 0.21 0.73 0.58l16.97 74.64c0.05 0.36-0.21 0.69-0.57 0.73l-86.44 10.32c-0.36 0.05-0.69-0.21-0.73-0.57l-9.16-76.18c-0.04-0.36 0.22-0.69 0.58-0.73z" transform="matrix(2.582 .086099 -.10180 2.599 -578.85 -884.44)" filter="url(#filter5761)" stroke="#000" stroke-miterlimit="0" stroke-width="2.9518" fill="none"/>
        <path id="path4513" d="m193.71-69.016l213.35-16.473c0.98-0.083 1.84 0.642 1.91 1.625l38.25 203.12c0.08 0.99-0.64 1.85-1.63 1.93l-234.64 19.89c-0.98 0.08-1.83-0.65-1.91-1.63l-16.95-206.54c-0.08-0.985 0.64-1.843 1.62-1.926z" stroke="url(#linearGradient2693)" stroke-miterlimit="0" stroke-width="2.1267" fill="#fff"/>
        <path id="path4515" fill="url(#linearGradient2695)" d="m203.9-61.961l195.6-15.079c0.9-0.076 1.69 0.604 1.76 1.525l35.16 186.98c0.07 0.93-0.6 1.73-1.49 1.81l-215.13 18.24c-0.9 0.07-1.68-0.61-1.76-1.53l-15.63-190.14c-0.08-0.922 0.59-1.725 1.49-1.801z"/>
        <path id="path5413" fill="url(#linearGradient2697)" d="m211.8-53.354l180.91-13.691c0.84-0.068 1.55 0.404 1.6 1.058l24.46 132.85c0.05 0.65-0.58 1.232-1.41 1.299l-193.8 15.869c-0.83 0.068-1.55-0.405-1.6-1.059l-11.56-135.02c-0.06-0.657 0.57-1.238 1.4-1.306z"/>
      </g>
    </g>
  </g>
  <metadata>
    <rdf:RDF>
      <cc:Work>
        <dc:format>image/svg+xml</dc:format>
        <dc:type rdf:resource="http://purl.org/dc/dcmitype/StillImage"/>
        <cc:license rdf:resource="http://creativecommons.org/licenses/publicdomain/"/>
        <dc:publisher>
          <cc:Agent rdf:about="http://openclipart.org/">
            <dc:title>Openclipart</dc:title>
          </cc:Agent>
        </dc:publisher>
        <dc:title>rgb slides</dc:title>
        <dc:date>2008-02-11T21:12:58</dc:date>
        <dc:description>edited the one's uploaded by sarxos to remove copyrighted material.</dc:description>
        <dc:source>http://openclipart.org/detail/13667/rgb-slides-by-molumen</dc:source>
        <dc:creator>
          <cc:Agent>
            <dc:title>molumen</dc:title>
          </cc:Agent>
        </dc:creator>
        <dc:subject>
          <rdf:Bag>
            <rdf:li>blue</rdf:li>
            <rdf:li>clip art</rdf:li>
            <rdf:li>clipart</rdf:li>
            <rdf:li>green</rdf:li>
            <rdf:li>media</rdf:li>
            <rdf:li>photo</rdf:li>
            <rdf:li>polaroid</rdf:li>
            <rdf:li>presentation</rdf:li>
            <rdf:li>red</rdf:li>
            <rdf:li>remix</rdf:li>
            <rdf:li>rgb</rdf:li>
            <rdf:li>sheets</rdf:li>
            <rdf:li>slide</rdf:li>
          </rdf:Bag>
        </dc:subject>
      </cc:Work>
      <cc:License rdf:about="http://creativecommons.org/licenses/publicdomain/">
        <cc:permits rdf:resource="http://creativecommons.org/ns#Reproduction"/>
        <cc:permits rdf:resource="http://creativecommons.org/ns#Distribution"/>
        <cc:permits rdf:resource="http://creativecommons.org/ns#DerivativeWorks"/>
      </cc:License>
    </rdf:RDF>
  </metadata>
</svg>
