<?xml version="1.0"?>
<svg xmlns:rdf="http://www.w3.org/1999/02/22-rdf-syntax-ns#" xmlns="http://www.w3.org/2000/svg" xmlns:cc="http://creativecommons.org/ns#" xmlns:dc="http://purl.org/dc/elements/1.1/" xmlns:svg="http://www.w3.org/2000/svg" id="svg4159" viewBox="0 0 979.68 1178.7" version="1.1">
  <g id="layer1" transform="translate(965.09 481.16)">
    <path id="path3213" d="m-22.855 28.257c0 13.668-11.08 24.749-24.749 24.749-13.668 0-24.749-11.08-24.749-24.749 0-13.668 11.08-24.749 24.749-24.749 13.668 0 24.749 11.08 24.749 24.749z" transform="matrix(18.312 0 0 18.312 396.28 -309.56)" stroke="#000" stroke-width="4" fill="none"/>
    <g id="g4013" transform="matrix(18.312 0 0 18.312 396.28 -17699)">
      <g id="g4017">
        <rect id="rect4009" ry="1.2627" transform="translate(0 949.6)" height="8.3338" width="9.849" y="-9.371" x="-52.654"/>
        <rect id="rect4011" transform="translate(0 949.6)" ry="0" height="2.9042" width="3.7881" y="-1.2267" x="-49.624"/>
      </g>
    </g>
    <g id="g4021" transform="matrix(9.1687 -9.1687 9.1687 9.1687 -9079.2 -9297.1)">
      <g id="g4023">
        <rect id="rect4025" transform="translate(0 949.6)" ry="1.2627" height="8.3338" width="9.849" y="-9.371" x="-52.654"/>
        <rect id="rect4027" ry="0" transform="translate(0 949.6)" height="2.9042" width="3.7881" y="-1.2267" x="-49.624"/>
      </g>
    </g>
    <g id="g4243" stroke="#000">
      <path id="path4029" stroke-width="25.453" transform="matrix(1.4389 0 0 1.4389 -406.93 167.22)" fill="none" d="m-22.855 28.257a24.749 24.749 0 1 1 -49.497 0 24.749 24.749 0 1 1 49.497 0z"/>
      <path id="path4031" stroke-width="14.136px" d="m-488.89 156.58 6.9578-253.53 6.7921-13.013 6.5712 13.013 6.5002 253.53z"/>
    </g>
    <path id="path4061" stroke="#000" stroke-width="9.1559" fill="none" d="m-475.31-186.47v44.106"/>
    <path id="path4065" stroke="#000" stroke-width="9.1559" fill="none" d="m-81.601 207.24h-44.105"/>
    <path id="path4067" stroke="#000" stroke-width="9.1559" fill="none" d="m-475.31 600.95v-44.105"/>
    <path id="path4069" stroke="#000" stroke-width="9.1559" fill="none" d="m-869.03 207.24h44.105"/>
    <path id="path4071" stroke="#000" stroke-width="9.1559" fill="none" d="m-278.46-133.72-22.053 38.196"/>
    <path id="path4073" stroke="#000" stroke-width="9.1559" fill="none" d="m-134.35 10.384-38.2 22.053"/>
    <path id="path4075" stroke="#000" stroke-width="9.1559" fill="none" d="m-134.35 404.1-38.196-22.053"/>
    <path id="path4077" stroke="#000" stroke-width="9.1559" fill="none" d="m-278.46 548.21-22.053-38.197"/>
    <path id="path4079" stroke="#000" stroke-width="9.1559" fill="none" d="m-672.17 548.21 22.053-38.197"/>
    <path id="path4081" stroke="#000" stroke-width="9.1559" fill="none" d="m-816.28 404.1 38.197-22.053"/>
    <path id="path4083" stroke="#000" stroke-width="9.1559" fill="none" d="m-816.28 10.384 38.2 22.053"/>
    <path id="path4085" stroke="#000" stroke-width="9.1559" fill="none" d="m-672.17-133.72 22.053 38.197"/>
    <path id="path4087" stroke="#000" stroke-width="9.1559" fill="none" d="m-672.17-133.72 22.053 38.197"/>
  </g>
  <metadata>
    <rdf:RDF>
      <cc:Work>
        <dc:format>image/svg+xml</dc:format>
        <dc:type rdf:resource="http://purl.org/dc/dcmitype/StillImage"/>
        <cc:license rdf:resource="http://creativecommons.org/licenses/publicdomain/"/>
        <dc:publisher>
          <cc:Agent rdf:about="http://openclipart.org/">
            <dc:title>Openclipart</dc:title>
          </cc:Agent>
        </dc:publisher>
        <dc:title>stopwatch</dc:title>
        <dc:date>2012-11-27T23:10:11</dc:date>
        <dc:description>chronograph, chronometer, clip art, clipart, clock, stopwatch, timekeeper, timepiece, timer, watch, </dc:description>
        <dc:source>http://openclipart.org/detail/173421/stopwatch-by-markroth8-173421</dc:source>
        <dc:creator>
          <cc:Agent>
            <dc:title>markroth8</dc:title>
          </cc:Agent>
        </dc:creator>
        <dc:subject>
          <rdf:Bag>
            <rdf:li>chronograph</rdf:li>
            <rdf:li>chronometer</rdf:li>
            <rdf:li>clip art</rdf:li>
            <rdf:li>clipart</rdf:li>
            <rdf:li>clock</rdf:li>
            <rdf:li>stopwatch</rdf:li>
            <rdf:li>timekeeper</rdf:li>
            <rdf:li>timepiece</rdf:li>
            <rdf:li>timer</rdf:li>
            <rdf:li>watch</rdf:li>
          </rdf:Bag>
        </dc:subject>
      </cc:Work>
      <cc:License rdf:about="http://creativecommons.org/licenses/publicdomain/">
        <cc:permits rdf:resource="http://creativecommons.org/ns#Reproduction"/>
        <cc:permits rdf:resource="http://creativecommons.org/ns#Distribution"/>
        <cc:permits rdf:resource="http://creativecommons.org/ns#DerivativeWorks"/>
      </cc:License>
    </rdf:RDF>
  </metadata>
</svg>
